<?xml version="1.0" encoding="UTF-8" standalone="no"?>
<!-- Created with Inkscape (http://www.inkscape.org/) -->

<svg
   xmlns:dc="http://purl.org/dc/elements/1.1/"
   xmlns:cc="http://creativecommons.org/ns#"
   xmlns:rdf="http://www.w3.org/1999/02/22-rdf-syntax-ns#"
   xmlns:svg="http://www.w3.org/2000/svg"
   xmlns="http://www.w3.org/2000/svg"
   xmlns:sodipodi="http://sodipodi.sourceforge.net/DTD/sodipodi-0.dtd"
   xmlns:inkscape="http://www.inkscape.org/namespaces/inkscape"
   width="1488.189"
   height="2104.7244"
   id="svg2"
   version="1.1"
   inkscape:version="0.48.4 r9939"
   sodipodi:docname="exercise_1.svg">
  <defs
     id="defs4" />
  <sodipodi:namedview
     id="base"
     pagecolor="#ffffff"
     bordercolor="#666666"
     borderopacity="1.0"
     inkscape:pageopacity="0.0"
     inkscape:pageshadow="2"
     inkscape:zoom="1.4"
     inkscape:cx="425.64581"
     inkscape:cy="663.46074"
     inkscape:document-units="px"
     inkscape:current-layer="layer1"
     showgrid="false"
     inkscape:window-width="1881"
     inkscape:window-height="1056"
     inkscape:window-x="39"
     inkscape:window-y="24"
     inkscape:window-maximized="1" />
  <metadata
     id="metadata7">
    <rdf:RDF>
      <cc:Work
         rdf:about="">
        <dc:format>image/svg+xml</dc:format>
        <dc:type
           rdf:resource="http://purl.org/dc/dcmitype/StillImage" />
        <dc:title />
      </cc:Work>
    </rdf:RDF>
  </metadata>
  <g
     inkscape:label="Layer 1"
     inkscape:groupmode="layer"
     id="layer1"
     transform="translate(0,1052.3622)">
    <rect
       style="fill:#ffffff;fill-opacity:1;stroke:#555555;stroke-width:1.43599999;stroke-miterlimit:4;stroke-opacity:1;stroke-dasharray:none"
       id="rect2985"
       width="652.14288"
       height="44.285713"
       x="36.42857"
       y="35.933609" />
    <rect
       style="fill:#ffffff;fill-opacity:1;stroke:#555555;stroke-width:1.43599999;stroke-miterlimit:4;stroke-opacity:1;stroke-dasharray:none"
       id="rect2987"
       width="114.28571"
       height="375"
       x="37.142857"
       y="88.790756" />
    <rect
       style="fill:#ffffff;fill-opacity:1;stroke:#555555;stroke-width:1.43599999;stroke-miterlimit:4;stroke-opacity:1;stroke-dasharray:none"
       id="rect3020"
       width="530"
       height="375"
       x="157.85715"
       y="88.790756" />
    <rect
       style="fill:#ffffff;fill-opacity:1;stroke:#555555;stroke-width:1.43599999;stroke-miterlimit:4;stroke-opacity:1;stroke-dasharray:none"
       id="rect3022"
       width="517.85712"
       height="45"
       x="163.57143"
       y="93.790756" />
    <rect
       style="fill:#ffffff;fill-opacity:1;stroke:#555555;stroke-width:1.45078611;stroke-miterlimit:4;stroke-opacity:1;stroke-dasharray:none"
       id="rect3024"
       width="249.26003"
       height="144.27484"
       x="163.57872"
       y="146.51251" />
    <rect
       style="fill:#ffffff;fill-opacity:1;stroke:#555555;stroke-width:1.47532582;stroke-miterlimit:4;stroke-opacity:1;stroke-dasharray:none"
       id="rect3024-1"
       width="257.80688"
       height="144.25067"
       x="422.17334"
       y="146.66338" />
    <rect
       style="fill:#ffffff;fill-opacity:1;stroke:#555555;stroke-width:1.0548389;stroke-miterlimit:4;stroke-opacity:1;stroke-dasharray:none"
       id="rect2985-7"
       width="348.88654"
       height="44.66687"
       x="734.24292"
       y="36.14563" />
    <rect
       style="fill:#ffffff;fill-opacity:1;stroke:#555555;stroke-width:1.39325511;stroke-miterlimit:4;stroke-opacity:1;stroke-dasharray:none"
       id="rect2987-7"
       width="74.920578"
       height="538.48596"
       x="735.12543"
       y="89.173065" />
    <rect
       style="fill:#ffffff;fill-opacity:1;stroke:#555555;stroke-width:1.21368217;stroke-miterlimit:4;stroke-opacity:1;stroke-dasharray:none"
       id="rect3020-5"
       width="263.54175"
       height="538.71466"
       x="819.7533"
       y="89.084267" />
    <rect
       style="fill:#ffffff;fill-opacity:1;stroke:#555555;stroke-width:0.9905439;stroke-miterlimit:4;stroke-opacity:1;stroke-dasharray:none"
       id="rect3022-5"
       width="249.60349"
       height="44.423252"
       x="825.35498"
       y="93.862724" />
    <rect
       style="fill:#ffffff;fill-opacity:1;stroke:#555555;stroke-width:1.17422462;stroke-miterlimit:4;stroke-opacity:1;stroke-dasharray:none"
       id="rect3024-4"
       width="249.536"
       height="94.407303"
       x="825.44775"
       y="145.49489" />
    <rect
       style="fill:#ffffff;fill-opacity:1;stroke:#555555;stroke-width:1.16418445;stroke-miterlimit:4;stroke-opacity:1;stroke-dasharray:none"
       id="rect3063-5"
       width="78.037155"
       height="64.491119"
       x="826.1571"
       y="344.8107" />
    <rect
       style="fill:#ffffff;fill-opacity:1;stroke:#555555;stroke-width:1.16418445;stroke-miterlimit:4;stroke-opacity:1;stroke-dasharray:none"
       id="rect3063-7-6"
       width="78.037155"
       height="64.491119"
       x="911.61945"
       y="344.8107" />
    <rect
       style="fill:#ffffff;fill-opacity:1;stroke:#555555;stroke-width:1.16418445;stroke-miterlimit:4;stroke-opacity:1;stroke-dasharray:none"
       id="rect3063-7-3-2"
       width="78.037155"
       height="64.491119"
       x="997.08179"
       y="344.8107" />
    <rect
       style="fill:#ffffff;fill-opacity:1;stroke:#555555;stroke-width:1.16418445;stroke-miterlimit:4;stroke-opacity:1;stroke-dasharray:none"
       id="rect3063-7-3-7-6"
       width="78.037155"
       height="64.491119"
       x="825.95239"
       y="485.06042" />
    <rect
       style="fill:#ffffff;fill-opacity:1;stroke:#555555;stroke-width:1.16418445;stroke-miterlimit:4;stroke-opacity:1;stroke-dasharray:none"
       id="rect3063-7-3-7-5-6"
       width="78.037155"
       height="64.491119"
       x="911.41479"
       y="485.06042" />
    <rect
       style="fill:#ffffff;fill-opacity:1;stroke:#555555;stroke-width:1.16418445;stroke-miterlimit:4;stroke-opacity:1;stroke-dasharray:none"
       id="rect3063-1-4"
       width="78.037155"
       height="64.491119"
       x="826.44824"
       y="415.22833" />
    <rect
       style="fill:#ffffff;fill-opacity:1;stroke:#555555;stroke-width:1.16418445;stroke-miterlimit:4;stroke-opacity:1;stroke-dasharray:none"
       id="rect3063-7-38-7"
       width="78.037155"
       height="64.491119"
       x="911.91058"
       y="415.22833" />
    <rect
       style="fill:#ffffff;fill-opacity:1;stroke:#555555;stroke-width:1.16418445;stroke-miterlimit:4;stroke-opacity:1;stroke-dasharray:none"
       id="rect3063-7-3-74-4"
       width="78.037155"
       height="64.491119"
       x="997.37292"
       y="415.22833" />
    <rect
       style="fill:#ffffff;fill-opacity:1;stroke:#555555;stroke-width:1.16418445;stroke-miterlimit:4;stroke-opacity:1;stroke-dasharray:none"
       id="rect3063-7-3-7-8-1"
       width="78.037155"
       height="64.491119"
       x="997.97821"
       y="485.35321" />
    <rect
       style="fill:#ffffff;fill-opacity:1;stroke:#555555;stroke-width:1.16418445;stroke-miterlimit:4;stroke-opacity:1;stroke-dasharray:none"
       id="rect3063-7-3-7-5-8-7"
       width="78.037155"
       height="64.491119"
       x="825.83862"
       y="555.47815" />
    <rect
       style="fill:#ffffff;fill-opacity:1;stroke:#555555;stroke-width:1.17422462;stroke-miterlimit:4;stroke-opacity:1;stroke-dasharray:none"
       id="rect3024-4-5"
       width="249.536"
       height="94.407303"
       x="825.45386"
       y="245.26836" />
    <rect
       style="fill:#ffffff;fill-opacity:1;stroke:#555555;stroke-width:0.76290721;stroke-miterlimit:4;stroke-opacity:1;stroke-dasharray:none"
       id="rect2985-7-1"
       width="181.4287"
       height="44.929844"
       x="1126.0133"
       y="35.973701" />
    <rect
       style="fill:#ffffff;fill-opacity:1;stroke:#555555;stroke-width:1.05385268;stroke-miterlimit:4;stroke-opacity:1;stroke-dasharray:none"
       id="rect3020-5-6"
       width="181.64095"
       height="589.31055"
       x="1126.5359"
       y="88.988846" />
    <rect
       style="fill:#ffffff;fill-opacity:1;stroke:#555555;stroke-width:0.7060793;stroke-miterlimit:4;stroke-opacity:1;stroke-dasharray:none"
       id="rect3022-5-7"
       width="172.1772"
       height="32.722378"
       x="1130.325"
       y="94.13311" />
    <rect
       style="fill:#ffffff;fill-opacity:1;stroke:#555555;stroke-width:0.89869893;stroke-miterlimit:4;stroke-opacity:1;stroke-dasharray:none"
       id="rect3024-4-9"
       width="172.09995"
       height="80.183365"
       x="1130.4044"
       y="133.52405" />
    <rect
       style="fill:#ffffff;fill-opacity:1;stroke:#555555;stroke-width:0.92793256;stroke-miterlimit:4;stroke-opacity:1;stroke-dasharray:none"
       id="rect3024-4-5-3"
       width="172.07283"
       height="85.498222"
       x="1130.4222"
       y="219.62068" />
    <rect
       style="fill:#ffffff;fill-opacity:1;stroke:#555555;stroke-width:1.212695;stroke-miterlimit:4;stroke-opacity:1;stroke-dasharray:none"
       id="rect3063-5-2"
       width="81.554695"
       height="66.959457"
       x="1131.1895"
       y="311.82336" />
    <rect
       style="fill:#ffffff;fill-opacity:1;stroke:#555555;stroke-width:1.212695;stroke-miterlimit:4;stroke-opacity:1;stroke-dasharray:none"
       id="rect3063-7-6-1"
       width="81.554695"
       height="66.959457"
       x="1220.6232"
       y="311.82336" />
    <rect
       style="fill:#ffffff;fill-opacity:1;stroke:#555555;stroke-width:1.212695;stroke-miterlimit:4;stroke-opacity:1;stroke-dasharray:none"
       id="rect3063-7-3-2-0"
       width="81.554695"
       height="66.959457"
       x="1220.6232"
       y="604.0473" />
    <rect
       style="fill:#ffffff;fill-opacity:1;stroke:#555555;stroke-width:1.212695;stroke-miterlimit:4;stroke-opacity:1;stroke-dasharray:none"
       id="rect3063-7-3-7-6-0"
       width="81.554695"
       height="66.959457"
       x="1131.1895"
       y="457.44104" />
    <rect
       style="fill:#ffffff;fill-opacity:1;stroke:#555555;stroke-width:1.212695;stroke-miterlimit:4;stroke-opacity:1;stroke-dasharray:none"
       id="rect3063-7-3-7-5-6-9"
       width="81.554695"
       height="66.959457"
       x="1220.6232"
       y="457.44104" />
    <rect
       style="fill:#ffffff;fill-opacity:1;stroke:#555555;stroke-width:1.212695;stroke-miterlimit:4;stroke-opacity:1;stroke-dasharray:none"
       id="rect3063-1-4-2"
       width="81.554695"
       height="66.959457"
       x="1131.1895"
       y="384.93622" />
    <rect
       style="fill:#ffffff;fill-opacity:1;stroke:#555555;stroke-width:1.212695;stroke-miterlimit:4;stroke-opacity:1;stroke-dasharray:none"
       id="rect3063-7-38-7-6"
       width="81.554695"
       height="66.959457"
       x="1220.6232"
       y="384.93622" />
    <rect
       style="fill:#ffffff;fill-opacity:1;stroke:#555555;stroke-width:1.212695;stroke-miterlimit:4;stroke-opacity:1;stroke-dasharray:none"
       id="rect3063-7-3-74-4-5"
       width="81.554695"
       height="66.959457"
       x="1131.1895"
       y="604.0473" />
    <rect
       style="fill:#ffffff;fill-opacity:1;stroke:#555555;stroke-width:1.212695;stroke-miterlimit:4;stroke-opacity:1;stroke-dasharray:none"
       id="rect3063-7-3-7-8-1-8"
       width="81.554695"
       height="66.959457"
       x="1220.6232"
       y="529.53204" />
    <rect
       style="fill:#ffffff;fill-opacity:1;stroke:#555555;stroke-width:1.212695;stroke-miterlimit:4;stroke-opacity:1;stroke-dasharray:none"
       id="rect3063-7-3-7-5-8-7-4"
       width="81.554695"
       height="66.959457"
       x="1131.1895"
       y="530.55389" />
    <path
       style="fill:#00ff00;fill-opacity:1;stroke:#555555;stroke-width:2.05142856;stroke-miterlimit:4;stroke-opacity:1;stroke-dasharray:none"
       d="m 37.183416,1111.0665 0,-20.7143 325.000004,0 325,0 0,20.7143 0,20.7142 -325,0 -325.000004,0 0,-20.7142 z"
       id="path3457"
       inkscape:connector-curvature="0"
       transform="translate(0,-1052.3622)" />
    <path
       style="fill:#00ff00;fill-opacity:1;stroke:#555555;stroke-width:2.05142856;stroke-miterlimit:4;stroke-opacity:1;stroke-dasharray:none"
       d="m 736.04056,58.7043 0,-20.7143 172.85714,0 172.8571,0 0,20.7143 0,20.7142 -172.8571,0 -172.85714,0 0,-20.7142 z"
       id="path3459"
       inkscape:connector-curvature="0" />
    <path
       style="fill:#ff0000;fill-opacity:1;stroke:#555555;stroke-width:2.05142856;stroke-miterlimit:4;stroke-opacity:1;stroke-dasharray:none"
       d="m 1127.4691,57.99 0,-21.4286 89.2857,0 89.2858,0 0,21.4286 0,21.4285 -89.2858,0 -89.2857,0 0,-21.4285 z"
       id="path3461"
       inkscape:connector-curvature="0" />
    <path
       style="fill:#ff0000;fill-opacity:1;stroke:#555555;stroke-width:2.05142856;stroke-miterlimit:4;stroke-opacity:1;stroke-dasharray:none"
       d="m 38.611988,1328.9236 0,-185.7143 55.714285,0 55.714287,0 0,185.7143 0,185.7143 -55.714287,0 -55.714285,0 0,-185.7143 z"
       id="path3463"
       inkscape:connector-curvature="0"
       transform="translate(0,-1052.3622)" />
    <path
       style="fill:#ff0000;fill-opacity:1;stroke:#555555;stroke-width:2.02852702;stroke-miterlimit:4;stroke-opacity:1;stroke-dasharray:none"
       d="m 736.03178,358.28692 0,-267.483782 36.43042,0 36.43042,0 0,267.483782 0,267.48389 -36.43042,0 -36.43042,0 0,-267.48389 z"
       id="path3465"
       inkscape:connector-curvature="0" />
    <path
       style="fill:#00ff00;fill-opacity:1;stroke:#555555;stroke-width:1.66183043;stroke-miterlimit:4;stroke-opacity:1;stroke-dasharray:none"
       d="m 36.988617,484.77566 0,-9.83766 325.194803,0 325.1948,0 0,9.83766 0,9.83765 -325.1948,0 -325.194803,0 0,-9.83765 z"
       id="path3467"
       inkscape:connector-curvature="0" />
    <path
       style="fill:#00ff00;fill-opacity:1;stroke:#555555;stroke-width:1.99050295;stroke-miterlimit:4;stroke-opacity:1;stroke-dasharray:none"
       d="m 734.58412,642.87341 0,-8.74095 174.31357,0 174.31351,0 0,8.74095 0,8.74094 -174.31351,0 -174.31357,0 0,-8.74094 z"
       id="path3471"
       inkscape:connector-curvature="0" />
    <path
       style="fill:#00ff00;fill-opacity:1;stroke:#555555;stroke-width:1.92007017;stroke-miterlimit:4;stroke-opacity:1;stroke-dasharray:none"
       d="m 1126.9851,693.87011 0,-8.80299 90.2748,0 90.2748,0 0,8.80299 0,8.80299 -90.2748,0 -90.2748,0 0,-8.80299 z"
       id="path3473"
       inkscape:connector-curvature="0" />
    <path
       style="fill:#ff00ff;fill-opacity:1;stroke:#555555;stroke-width:2.05142856;stroke-miterlimit:4;stroke-opacity:1;stroke-dasharray:none"
       d="m 164.32627,1168.9236 0,-21.4286 257.85715,0 257.85714,0 0,21.4286 0,21.4286 -257.85714,0 -257.85715,0 0,-21.4286 z"
       id="path3475"
       inkscape:connector-curvature="0"
       transform="translate(0,-1052.3622)" />
    <path
       style="fill:#ff00ff;fill-opacity:1;stroke:#555555;stroke-width:2.02852702;stroke-miterlimit:4;stroke-opacity:1;stroke-dasharray:none"
       d="m 826.03635,115.94523 0,-20.951759 123.5777,0 123.57765,0 0,20.951759 0,20.95177 -123.57765,0 -123.5777,0 0,-20.95177 z"
       id="path3477"
       inkscape:connector-curvature="0" />
    <path
       style="fill:#ff00ff;fill-opacity:1;stroke:#555555;stroke-width:2.05142856;stroke-miterlimit:4;stroke-opacity:1;stroke-dasharray:none"
       d="m 1131.7548,110.1328 0,-15 85,0 85,0 0,15 0,15 -85,0 -85,0 0,-15 z"
       id="path3479"
       inkscape:connector-curvature="0" />
    <path
       style="fill:#0000ff;fill-opacity:1;stroke:#555555;stroke-width:1.98056376;stroke-miterlimit:4;stroke-opacity:1;stroke-dasharray:none"
       d="m 165.71941,335.82825 0,-36.44518 43.25663,0 43.25661,0 0,36.44518 0,36.44517 -43.25661,0 -43.25663,0 0,-36.44517 z"
       id="path3492"
       inkscape:connector-curvature="0" />
    <path
       style="fill:#0000ff;fill-opacity:1;stroke:#555555;stroke-width:1.98255694;stroke-miterlimit:4;stroke-opacity:1;stroke-dasharray:none"
       d="m 264.13143,335.82825 0,-36.44419 43.34491,0 43.34491,0 0,36.44419 0,36.44418 -43.34491,0 -43.34491,0 0,-36.44418 z"
       id="path3494"
       inkscape:connector-curvature="0" />
    <path
       style="fill:#0000ff;fill-opacity:1;stroke:#555555;stroke-width:2.34538579;stroke-miterlimit:4;stroke-opacity:1;stroke-dasharray:none"
       d="m 360.24447,335.92531 0,-36.35982 60.80253,0 60.80253,0 0,36.35982 0,36.35982 -60.80253,0 -60.80253,0 0,-36.35982 z"
       id="path3496"
       inkscape:connector-curvature="0" />
    <path
       style="fill:#0000ff;fill-opacity:1;stroke:#555555;stroke-width:1.98056376;stroke-miterlimit:4;stroke-opacity:1;stroke-dasharray:none"
       d="m 493.64219,335.82825 0,-36.44518 43.25662,0 43.25661,0 0,36.44518 0,36.44517 -43.25661,0 -43.25662,0 0,-36.44517 z"
       id="path3498"
       inkscape:connector-curvature="0" />
    <path
       style="fill:#0000ff;fill-opacity:1;stroke:#555555;stroke-width:1.98056376;stroke-miterlimit:4;stroke-opacity:1;stroke-dasharray:none"
       d="m 590.80321,335.82825 0,-36.44518 43.9221,0 43.92211,0 0,36.44518 0,36.44517 -43.92211,0 -43.9221,0 0,-36.44517 z"
       id="path3500"
       inkscape:connector-curvature="0" />
    <path
       style="fill:#0000ff;fill-opacity:1;stroke:#555555;stroke-width:1.99461305;stroke-miterlimit:4;stroke-opacity:1;stroke-dasharray:none"
       d="m 590.87852,418.72315 0,-36.43815 43.88093,0 43.88095,0 0,36.43815 0,36.43806 -43.88095,0 -43.88093,0 0,-36.43806 z"
       id="path3502"
       inkscape:connector-curvature="0" />
    <path
       style="fill:#0000ff;fill-opacity:1;stroke:#555555;stroke-width:1.98056376;stroke-miterlimit:4;stroke-opacity:1;stroke-dasharray:none"
       d="m 493.64219,418.72315 0,-36.44517 43.25662,0 43.25661,0 0,36.44517 0,36.44508 -43.25661,0 -43.25662,0 0,-36.44508 z"
       id="path3504"
       inkscape:connector-curvature="0" />
    <path
       style="fill:#0000ff;fill-opacity:1;stroke:#555555;stroke-width:2.34538579;stroke-miterlimit:4;stroke-opacity:1;stroke-dasharray:none"
       d="m 360.24447,418.62609 0,-36.35982 60.80253,0 60.80253,0 0,36.35982 0,36.35972 -60.80253,0 -60.80253,0 0,-36.35972 z"
       id="path3506"
       inkscape:connector-curvature="0" />
    <path
       style="fill:#0000ff;fill-opacity:1;stroke:#555555;stroke-width:1.98056376;stroke-miterlimit:4;stroke-opacity:1;stroke-dasharray:none"
       d="m 264.21141,418.72315 0,-36.44517 43.25661,0 43.25662,0 0,36.44517 0,36.44508 -43.25662,0 -43.25661,0 0,-36.44508 z"
       id="path3508"
       inkscape:connector-curvature="0" />
    <path
       style="fill:#0000ff;fill-opacity:1;stroke:#555555;stroke-width:1.98056376;stroke-miterlimit:4;stroke-opacity:1;stroke-dasharray:none"
       d="m 165.71941,418.72315 0,-36.44517 43.25663,0 43.25661,0 0,36.44517 0,36.44508 -43.25661,0 -43.25663,0 0,-36.44508 z"
       id="path3510"
       inkscape:connector-curvature="0" />
    <path
       style="fill:#0000ff;fill-opacity:1;stroke:#555555;stroke-width:2.02852702;stroke-miterlimit:4;stroke-opacity:1;stroke-dasharray:none"
       d="m 827.46499,377.14357 0,-30.72924 37.85906,0 37.85907,0 0,30.72924 0,30.72914 -37.85907,0 -37.85906,0 0,-30.72914 z"
       id="path3512"
       inkscape:connector-curvature="0" />
    <path
       style="fill:#0000ff;fill-opacity:1;stroke:#555555;stroke-width:2.02852702;stroke-miterlimit:4;stroke-opacity:1;stroke-dasharray:none"
       d="m 827.46499,447.68102 0,-31.42755 37.85906,0 37.85907,0 0,31.42755 0,31.42765 -37.85907,0 -37.85906,0 0,-31.42765 z"
       id="path3514"
       inkscape:connector-curvature="0" />
    <path
       style="fill:#0000ff;fill-opacity:1;stroke:#555555;stroke-width:2.02852702;stroke-miterlimit:4;stroke-opacity:1;stroke-dasharray:none"
       d="m 827.46499,517.52017 0,-31.42765 37.85906,0 37.85907,0 0,31.42765 0,31.42754 -37.85907,0 -37.85906,0 0,-31.42754 z"
       id="path3516"
       inkscape:connector-curvature="0" />
    <path
       style="fill:#0000ff;fill-opacity:1;stroke:#555555;stroke-width:2.02852702;stroke-miterlimit:4;stroke-opacity:1;stroke-dasharray:none"
       d="m 827.46499,588.05762 0,-30.72914 37.85906,0 37.85907,0 0,30.72914 0,30.72924 -37.85907,0 -37.85906,0 0,-30.72924 z"
       id="path3518"
       inkscape:connector-curvature="0" />
    <path
       style="fill:#0000ff;fill-opacity:1;stroke:#555555;stroke-width:2.02852702;stroke-miterlimit:4;stroke-opacity:1;stroke-dasharray:none"
       d="m 913.18363,517.52017 0,-31.42765 37.14473,0 37.14475,0 0,31.42765 0,31.42754 -37.14475,0 -37.14473,0 0,-31.42754 z"
       id="path3520"
       inkscape:connector-curvature="0" />
    <path
       style="fill:#0000ff;fill-opacity:1;stroke:#555555;stroke-width:2.02852702;stroke-miterlimit:4;stroke-opacity:1;stroke-dasharray:none"
       d="m 913.18363,447.68102 0,-31.42755 37.85906,0 37.85906,0 0,31.42755 0,31.42765 -37.85906,0 -37.85906,0 0,-31.42765 z"
       id="path3522"
       inkscape:connector-curvature="0" />
    <path
       style="fill:#0000ff;fill-opacity:1;stroke:#555555;stroke-width:2.02852702;stroke-miterlimit:4;stroke-opacity:1;stroke-dasharray:none"
       d="m 913.18363,377.14357 0,-30.72924 37.85906,0 37.85906,0 0,30.72924 0,30.72914 -37.85906,0 -37.85906,0 0,-30.72914 z"
       id="path3524"
       inkscape:connector-curvature="0" />
    <path
       style="fill:#0000ff;fill-opacity:1;stroke:#555555;stroke-width:2.02852702;stroke-miterlimit:4;stroke-opacity:1;stroke-dasharray:none"
       d="m 998.90226,377.14357 0,-30.72924 37.14474,0 37.1447,0 0,30.72924 0,30.72914 -37.1447,0 -37.14474,0 0,-30.72914 z"
       id="path3526"
       inkscape:connector-curvature="0" />
    <path
       style="fill:#0000ff;fill-opacity:1;stroke:#555555;stroke-width:2.02852702;stroke-miterlimit:4;stroke-opacity:1;stroke-dasharray:none"
       d="m 998.90226,447.68102 0,-31.42755 37.85904,0 37.8591,0 0,31.42755 0,31.42765 -37.8591,0 -37.85904,0 0,-31.42765 z"
       id="path3528"
       inkscape:connector-curvature="0" />
    <path
       style="fill:#0000ff;fill-opacity:1;stroke:#555555;stroke-width:2.02852702;stroke-miterlimit:4;stroke-opacity:1;stroke-dasharray:none"
       d="m 998.90226,517.52017 0,-31.42765 37.85904,0 37.8591,0 0,31.42765 0,31.42754 -37.8591,0 -37.85904,0 0,-31.42754 z"
       id="path3530"
       inkscape:connector-curvature="0" />
    <path
       style="fill:#0000ff;fill-opacity:1;stroke:#555555;stroke-width:2.05142856;stroke-miterlimit:4;stroke-opacity:1;stroke-dasharray:none"
       d="m 1133.1834,637.2757 0,-32.1429 39.2857,0 39.2857,0 0,32.1429 0,32.1428 -39.2857,0 -39.2857,0 0,-32.1428 z"
       id="path3532"
       inkscape:connector-curvature="0" />
    <path
       style="fill:#0000ff;fill-opacity:1;stroke:#555555;stroke-width:2.05142856;stroke-miterlimit:4;stroke-opacity:1;stroke-dasharray:none"
       d="m 1133.1834,564.4185 0,-32.1428 39.2857,0 39.2857,0 0,32.1428 0,32.1429 -39.2857,0 -39.2857,0 0,-32.1429 z"
       id="path3534"
       inkscape:connector-curvature="0" />
    <path
       style="fill:#0000ff;fill-opacity:1;stroke:#555555;stroke-width:2.05142856;stroke-miterlimit:4;stroke-opacity:1;stroke-dasharray:none"
       d="m 1133.1834,491.5614 0,-32.1429 39.2857,0 39.2857,0 0,32.1429 0,32.1429 -39.2857,0 -39.2857,0 0,-32.1429 z"
       id="path3536"
       inkscape:connector-curvature="0" />
    <path
       style="fill:#0000ff;fill-opacity:1;stroke:#555555;stroke-width:2.05142856;stroke-miterlimit:4;stroke-opacity:1;stroke-dasharray:none"
       d="m 1133.1834,418.7043 0,-32.1429 39.2857,0 39.2857,0 0,32.1429 0,32.1428 -39.2857,0 -39.2857,0 0,-32.1428 z"
       id="path3538"
       inkscape:connector-curvature="0" />
    <path
       style="fill:#0000ff;fill-opacity:1;stroke:#555555;stroke-width:2.05142856;stroke-miterlimit:4;stroke-opacity:1;stroke-dasharray:none"
       d="m 1133.1834,345.8471 0,-32.1428 39.2857,0 39.2857,0 0,32.1428 0,32.1429 -39.2857,0 -39.2857,0 0,-32.1429 z"
       id="path3540"
       inkscape:connector-curvature="0" />
    <path
       style="fill:#0000ff;fill-opacity:1;stroke:#555555;stroke-width:2.05142856;stroke-miterlimit:4;stroke-opacity:1;stroke-dasharray:none"
       d="m 1221.7548,345.8471 0,-32.1428 39.2858,0 39.2857,0 0,32.1428 0,32.1429 -39.2857,0 -39.2858,0 0,-32.1429 z"
       id="path3542"
       inkscape:connector-curvature="0" />
    <path
       style="fill:#0000ff;fill-opacity:1;stroke:#555555;stroke-width:2.05142856;stroke-miterlimit:4;stroke-opacity:1;stroke-dasharray:none"
       d="m 1221.7548,418.7043 0,-32.1429 39.2858,0 39.2857,0 0,32.1429 0,32.1428 -39.2857,0 -39.2858,0 0,-32.1428 z"
       id="path3544"
       inkscape:connector-curvature="0" />
    <path
       style="fill:#0000ff;fill-opacity:1;stroke:#555555;stroke-width:2.05142856;stroke-miterlimit:4;stroke-opacity:1;stroke-dasharray:none"
       d="m 1221.7548,491.5614 0,-32.1429 39.2858,0 39.2857,0 0,32.1429 0,32.1429 -39.2857,0 -39.2858,0 0,-32.1429 z"
       id="path3546"
       inkscape:connector-curvature="0" />
    <path
       style="fill:#0000ff;fill-opacity:1;stroke:#555555;stroke-width:2.05142856;stroke-miterlimit:4;stroke-opacity:1;stroke-dasharray:none"
       d="m 1221.7548,562.99 0,-32.1429 39.2858,0 39.2857,0 0,32.1429 0,32.1428 -39.2857,0 -39.2858,0 0,-32.1428 z"
       id="path3548"
       inkscape:connector-curvature="0" />
    <path
       style="fill:#0000ff;fill-opacity:1;stroke:#555555;stroke-width:2.05142856;stroke-miterlimit:4;stroke-opacity:1;stroke-dasharray:none"
       d="m 1221.7548,637.2757 0,-32.1429 39.2858,0 39.2857,0 0,32.1429 0,32.1428 -39.2857,0 -39.2858,0 0,-32.1428 z"
       id="path3550"
       inkscape:connector-curvature="0" />
    <path
       style="fill:#ff9955;fill-opacity:1;stroke:#555555;stroke-width:2.05142856;stroke-miterlimit:4;stroke-opacity:1;stroke-dasharray:none"
       d="m 1131.7548,262.2757 0,-41.4286 85,0 85,0 0,41.4286 0,41.4286 -85,0 -85,0 0,-41.4286 z"
       id="path3558"
       inkscape:connector-curvature="0" />
    <path
       style="fill:#ff9955;fill-opacity:1;stroke:#555555;stroke-width:2.05142856;stroke-miterlimit:4;stroke-opacity:1;stroke-dasharray:none"
       d="m 1131.7548,173.7043 0,-38.5715 85,0 85,0 0,38.5715 0,38.5714 -85,0 -85,0 0,-38.5714 z"
       id="path3560"
       inkscape:connector-curvature="0" />
    <path
       style="fill:#ff9955;fill-opacity:1;stroke:#555555;stroke-width:2.02852702;stroke-miterlimit:4;stroke-opacity:1;stroke-dasharray:none"
       d="m 826.03635,192.76823 0,-46.09376 123.5777,0 123.57765,0 0,46.09376 0,46.09386 -123.57765,0 -123.5777,0 0,-46.09386 z"
       id="path3562"
       inkscape:connector-curvature="0" />
    <path
       style="fill:#ff9955;fill-opacity:1;stroke:#555555;stroke-width:2.02852702;stroke-miterlimit:4;stroke-opacity:1;stroke-dasharray:none"
       d="m 826.03635,291.93981 0,-46.09386 123.5777,0 123.57765,0 0,46.09386 0,46.09385 -123.57765,0 -123.5777,0 0,-46.09385 z"
       id="path3564"
       inkscape:connector-curvature="0" />
    <path
       style="fill:#ff9955;fill-opacity:1;stroke:#555555;stroke-width:2.05142856;stroke-miterlimit:4;stroke-opacity:1;stroke-dasharray:none"
       d="m 422.8977,1271.0665 0,-70.7143 127.85715,0 127.85714,0 0,70.7143 0,70.7142 -127.85714,0 -127.85715,0 0,-70.7142 z"
       id="path3566"
       inkscape:connector-curvature="0"
       transform="translate(0,-1052.3622)" />
    <path
       style="fill:#ff9955;fill-opacity:1;stroke:#555555;stroke-width:2.05142856;stroke-miterlimit:4;stroke-opacity:1;stroke-dasharray:none"
       d="m 164.32627,1271.0665 0,-70.7143 123.57143,0 123.57143,0 0,70.7143 0,70.7142 -123.57143,0 -123.57143,0 0,-70.7142 z"
       id="path3568"
       inkscape:connector-curvature="0"
       transform="translate(0,-1052.3622)" />
    <path
       style="fill:#00ff00;fill-opacity:1;stroke:#555555;stroke-width:2.05142856;stroke-miterlimit:4;stroke-opacity:1;stroke-dasharray:none"
       d="m 1128.8977,57.99 0,-20 87.8571,0 87.8572,0 0,20 0,20 -87.8572,0 -87.8571,0 0,-20 z"
       id="path3570"
       inkscape:connector-curvature="0" />
  </g>
</svg>
